<?xml version="1.0" encoding="UTF-8" standalone="no"?>
<!-- Created with Inkscape (http://www.inkscape.org/) -->

<svg
   width="4100"
   height="500"
   viewBox="0 0 4100 500"
   version="1.1"
   id="svg_i6n26_banner"
   xml:space="preserve"
   xmlns="http://www.w3.org/2000/svg"
   xmlns:svg="http://www.w3.org/2000/svg"
   xmlns:rdf="http://www.w3.org/1999/02/22-rdf-syntax-ns#"
   xmlns:cc="http://creativecommons.org/ns#"
   xmlns:dc="http://purl.org/dc/elements/1.1/"><title
     id="title">www.i6n26.com banner</title><defs
     id="defs2"><rect
       x="566.57019"
       y="119.46847"
       width="2282.7747"
       height="312.5105"
       id="rect505" /></defs><rect
     style="fill:#202020;stroke:none"
     id="background"
     width="4100"
     height="500"
     x="0"
     y="0" /><g
     id="icon"
     transform="scale(0.1)"><rect
       style="opacity:1;fill:#202020;stroke:none;stroke-width:100.04"
       id="background-5"
       width="5000"
       height="5000"
       x="0"
       y="0" /><path
       style="opacity:1;fill:#cccccc;stroke:none;stroke-width:100.04"
       d="M 474.19,2099.84 199.08,924.37 l 825.33,500.2 c 0,0 158.57,1117.3693 -550.22,675.27 z"
       id="north-west" /><path
       style="opacity:1;fill:#cccccc;stroke:none;stroke-width:100.04"
       d="m 524.21,2374.95 200.08,875.35 669.0663,616.6807 c 0,0 -148.3642,-1169.5873 -869.1463,-1492.0307 z"
       id="south-west" /><path
       style="opacity:1;fill:#cccccc;stroke:none;stroke-width:100.04"
       d="M 3375.35,4075.63 2500,4875.95 v -900.36 c 0,0 914.8056,-740.3194 875.35,100.04 z"
       id="south" /><path
       style="opacity:1;fill:#cccccc;stroke:none;stroke-width:100.04"
       d="m 3600.44,3875.55 675.27,-625.25 196.0954,-853.7315 c 0,0 -782.9791,690.7757 -871.3654,1478.9815 z"
       id="sourth-east" /><path
       style="opacity:1;fill:#cccccc;stroke:none;stroke-width:100.04"
       d="m 3650.46,549.22 1150.46,400.16 -825.33,475.19 c 0,0 -1055.4246,-501.8343 -325.13,-875.35 z"
       id="north-east" /><path
       style="opacity:1;fill:#cccccc;stroke:none;stroke-width:100.04"
       d="M 3350.34,449.18 2500,174.07 1645.6793,452.28496 c 0,0 845.8285,334.39404 1704.6607,-3.10496 z"
       id="north" /><circle
       style="fill:#ffffff;stroke:none;stroke-width:100.04"
       id="circle"
       cx="2500"
       cy="2249.8999"
       r="1250.5" /></g><text
     xml:space="preserve"
     id="text"
     style="font-style:normal;font-variant:normal;font-weight:normal;font-stretch:normal;font-size:192px;font-family:'Noto Sans CJK JP';-inkscape-font-specification:'Noto Sans CJK JP, @wght=400';font-variant-ligatures:normal;font-variant-caps:normal;font-variant-numeric:normal;font-variant-east-asian:normal;font-variation-settings:'wght' 400;writing-mode:lr-tb;white-space:pre;shape-inside:url(#rect505);shape-padding:0;display:inline;fill:#cccccc;stroke-width:100"
     transform="matrix(2.5579395,0,0,2.5579395,-916.10242,-341.3608)"><tspan
       x="566.57031"
       y="312.42875"
       id="tspan2195"><tspan
         style="font-size:186.056px"
         id="tspan2193">www.i6n26.com</tspan></tspan></text><metadata
     id="metadata414"><rdf:RDF><cc:Work
         rdf:about=""><dc:title>www.i6n26.com banner</dc:title><dc:date>2022-03-11T22:00:00</dc:date><dc:creator><cc:Agent><dc:title>n0nakamura</dc:title></cc:Agent></dc:creator><dc:rights><cc:Agent><dc:title>Copyright © 2023 Noritoshi Nakamura All rights reserved.</dc:title></cc:Agent></dc:rights></cc:Work></rdf:RDF></metadata></svg>
